<!DOCTYPE svg PUBLIC "-//W3C//DTD SVG 1.1//EN" "http://www.w3.org/Graphics/SVG/1.1/DTD/svg11.dtd">
<svg xmlns="http://www.w3.org/2000/svg" xmlns:xlink="http://www.w3.org/1999/xlink" xmlns:jfreesvg="http://www.jfree.org/jfreesvg/svg" width="600" height="400" text-rendering="auto" shape-rendering="auto">
<defs><clipPath id="_1775125779213clip-0"><path d="M 0 0 L 600 0 L 600 400 L 0 400 L 0 0 Z "/></clipPath>
<clipPath id="_1775125779213clip-1"><path d="M 220.5 181.5 L 220.5 781.5 L -179.5 781.5 L -179.5 181.5 L 220.5 181.5 Z "/></clipPath>
<clipPath id="_1775125779213clip-2"><path d="M 77 53 L 77 349 L 588 349 L 588 53 Z "/></clipPath>
</defs>
<rect x="0" y="0" width="600" height="400" style="fill: rgb(255,255,255); fill-opacity: 1.0" clip-path="url(#_1775125779213clip-0)"/><g ><text x="213.5" y="17.71" style="fill: rgb(0,0,0); fill-opacity: 1.0; font-family: sans-serif; font-size: 18px; font-weight: bold;" clip-path="url(#_1775125779213clip-0)">COVID alert level</text></g><rect x="232" y="376" width="136" height="23" style="fill: rgb(255,255,255); fill-opacity: 1.0" clip-path="url(#_1775125779213clip-0)"/><g style="stroke-width: 3.0;stroke: rgb(255,0,0);stroke-opacity: 1.0;stroke-linecap: round;stroke-linejoin: bevel;shape-rendering:geometricPrecision;; fill: none" clip-path="url(#_1775125779213clip-0)"><path d="M 235 387.5 L 249 387.5"/></g><g ><text x="253" y="392" style="fill: rgb(64,64,64); fill-opacity: 1.0; font-family: sans-serif; font-size: 14px;" clip-path="url(#_1775125779213clip-0)">Test1</text></g><g style="stroke-width: 3.0;stroke: rgb(24,123,58);stroke-opacity: 1.0;stroke-linecap: round;stroke-linejoin: bevel;shape-rendering:geometricPrecision;; fill: none" clip-path="url(#_1775125779213clip-0)"><path d="M 298 387.5 L 312 387.5"/></g><g ><text x="316" y="392" style="fill: rgb(64,64,64); fill-opacity: 1.0; font-family: sans-serif; font-size: 14px;" clip-path="url(#_1775125779213clip-0)">TestNY</text></g><g ><text x="232" y="39.85" style="fill: rgb(0,0,0); fill-opacity: 1.0; font-family: sans-serif; font-size: 16px;" clip-path="url(#_1775125779213clip-0)">Source: NYTimes</text></g><rect x="77" y="53" width="511" height="296" style="fill: rgb(192,192,192); fill-opacity: 1.0" clip-path="url(#_1775125779213clip-0)"/><line x1="77" y1="353" x2="588" y2="353" style="stroke-width: 0.5;stroke: rgb(128,128,128);stroke-opacity: 1.0;stroke-linecap: square;shape-rendering:crispEdges;" clip-path="url(#_1775125779213clip-0)"/><g ><text x="106.68" y="369.17" style="fill: rgb(64,64,64); fill-opacity: 1.0; font-family: sans-serif; font-size: 12px;" clip-path="url(#_1775125779213clip-0)">Apr-2016</text></g><line x1="134.68" y1="355" x2="134.68" y2="353" style="stroke-width: 0.5;stroke: rgb(128,128,128);stroke-opacity: 1.0;stroke-linecap: square;shape-rendering:crispEdges;" clip-path="url(#_1775125779213clip-0)"/><g ><text x="183.05" y="369.17" style="fill: rgb(64,64,64); fill-opacity: 1.0; font-family: sans-serif; font-size: 12px;" clip-path="url(#_1775125779213clip-0)">Aug-2016</text></g><line x1="212.05" y1="355" x2="212.05" y2="353" style="stroke-width: 0.5;stroke: rgb(128,128,128);stroke-opacity: 1.0;stroke-linecap: square;shape-rendering:crispEdges;" clip-path="url(#_1775125779213clip-0)"/><g ><text x="260.44" y="369.17" style="fill: rgb(64,64,64); fill-opacity: 1.0; font-family: sans-serif; font-size: 12px;" clip-path="url(#_1775125779213clip-0)">Dec-2016</text></g><line x1="289.44" y1="355" x2="289.44" y2="353" style="stroke-width: 0.5;stroke: rgb(128,128,128);stroke-opacity: 1.0;stroke-linecap: square;shape-rendering:crispEdges;" clip-path="url(#_1775125779213clip-0)"/><g ><text x="338.15" y="369.17" style="fill: rgb(64,64,64); fill-opacity: 1.0; font-family: sans-serif; font-size: 12px;" clip-path="url(#_1775125779213clip-0)">Apr-2017</text></g><line x1="366.15" y1="355" x2="366.15" y2="353" style="stroke-width: 0.5;stroke: rgb(128,128,128);stroke-opacity: 1.0;stroke-linecap: square;shape-rendering:crispEdges;" clip-path="url(#_1775125779213clip-0)"/><g ><text x="414.51" y="369.17" style="fill: rgb(64,64,64); fill-opacity: 1.0; font-family: sans-serif; font-size: 12px;" clip-path="url(#_1775125779213clip-0)">Aug-2017</text></g><line x1="443.51" y1="355" x2="443.51" y2="353" style="stroke-width: 0.5;stroke: rgb(128,128,128);stroke-opacity: 1.0;stroke-linecap: square;shape-rendering:crispEdges;" clip-path="url(#_1775125779213clip-0)"/><g ><text x="491.91" y="369.17" style="fill: rgb(64,64,64); fill-opacity: 1.0; font-family: sans-serif; font-size: 12px;" clip-path="url(#_1775125779213clip-0)">Dec-2017</text></g><line x1="520.91" y1="355" x2="520.91" y2="353" style="stroke-width: 0.5;stroke: rgb(128,128,128);stroke-opacity: 1.0;stroke-linecap: square;shape-rendering:crispEdges;" clip-path="url(#_1775125779213clip-0)"/><line x1="73" y1="53" x2="73" y2="349" style="stroke-width: 0.5;stroke: rgb(128,128,128);stroke-opacity: 1.0;stroke-linecap: square;shape-rendering:crispEdges;" clip-path="url(#_1775125779213clip-0)"/><g ><text x="44" y="340.22" style="fill: rgb(64,64,64); fill-opacity: 1.0; font-family: sans-serif; font-size: 12px;" clip-path="url(#_1775125779213clip-0)">100</text></g><line x1="71" y1="335.55" x2="73" y2="335.55" style="stroke-width: 0.5;stroke: rgb(128,128,128);stroke-opacity: 1.0;stroke-linecap: square;shape-rendering:crispEdges;" clip-path="url(#_1775125779213clip-0)"/><g ><text x="44" y="310.81" style="fill: rgb(64,64,64); fill-opacity: 1.0; font-family: sans-serif; font-size: 12px;" clip-path="url(#_1775125779213clip-0)">200</text></g><line x1="71" y1="306.14" x2="73" y2="306.14" style="stroke-width: 0.5;stroke: rgb(128,128,128);stroke-opacity: 1.0;stroke-linecap: square;shape-rendering:crispEdges;" clip-path="url(#_1775125779213clip-0)"/><g ><text x="44" y="281.4" style="fill: rgb(64,64,64); fill-opacity: 1.0; font-family: sans-serif; font-size: 12px;" clip-path="url(#_1775125779213clip-0)">300</text></g><line x1="71" y1="276.73" x2="73" y2="276.73" style="stroke-width: 0.5;stroke: rgb(128,128,128);stroke-opacity: 1.0;stroke-linecap: square;shape-rendering:crispEdges;" clip-path="url(#_1775125779213clip-0)"/><g ><text x="44" y="251.99" style="fill: rgb(64,64,64); fill-opacity: 1.0; font-family: sans-serif; font-size: 12px;" clip-path="url(#_1775125779213clip-0)">400</text></g><line x1="71" y1="247.32" x2="73" y2="247.32" style="stroke-width: 0.5;stroke: rgb(128,128,128);stroke-opacity: 1.0;stroke-linecap: square;shape-rendering:crispEdges;" clip-path="url(#_1775125779213clip-0)"/><g ><text x="44" y="222.58" style="fill: rgb(64,64,64); fill-opacity: 1.0; font-family: sans-serif; font-size: 12px;" clip-path="url(#_1775125779213clip-0)">500</text></g><line x1="71" y1="217.91" x2="73" y2="217.91" style="stroke-width: 0.5;stroke: rgb(128,128,128);stroke-opacity: 1.0;stroke-linecap: square;shape-rendering:crispEdges;" clip-path="url(#_1775125779213clip-0)"/><g ><text x="44" y="193.17" style="fill: rgb(64,64,64); fill-opacity: 1.0; font-family: sans-serif; font-size: 12px;" clip-path="url(#_1775125779213clip-0)">600</text></g><line x1="71" y1="188.5" x2="73" y2="188.5" style="stroke-width: 0.5;stroke: rgb(128,128,128);stroke-opacity: 1.0;stroke-linecap: square;shape-rendering:crispEdges;" clip-path="url(#_1775125779213clip-0)"/><g ><text x="44" y="163.76" style="fill: rgb(64,64,64); fill-opacity: 1.0; font-family: sans-serif; font-size: 12px;" clip-path="url(#_1775125779213clip-0)">700</text></g><line x1="71" y1="159.09" x2="73" y2="159.09" style="stroke-width: 0.5;stroke: rgb(128,128,128);stroke-opacity: 1.0;stroke-linecap: square;shape-rendering:crispEdges;" clip-path="url(#_1775125779213clip-0)"/><g ><text x="44" y="134.35" style="fill: rgb(64,64,64); fill-opacity: 1.0; font-family: sans-serif; font-size: 12px;" clip-path="url(#_1775125779213clip-0)">800</text></g><line x1="71" y1="129.68" x2="73" y2="129.68" style="stroke-width: 0.5;stroke: rgb(128,128,128);stroke-opacity: 1.0;stroke-linecap: square;shape-rendering:crispEdges;" clip-path="url(#_1775125779213clip-0)"/><g ><text x="44" y="104.94" style="fill: rgb(64,64,64); fill-opacity: 1.0; font-family: sans-serif; font-size: 12px;" clip-path="url(#_1775125779213clip-0)">900</text></g><line x1="71" y1="100.27" x2="73" y2="100.27" style="stroke-width: 0.5;stroke: rgb(128,128,128);stroke-opacity: 1.0;stroke-linecap: square;shape-rendering:crispEdges;" clip-path="url(#_1775125779213clip-0)"/><g ><text x="33" y="75.54" style="fill: rgb(64,64,64); fill-opacity: 1.0; font-family: sans-serif; font-size: 12px;" clip-path="url(#_1775125779213clip-0)">1,000</text></g><line x1="71" y1="70.87" x2="73" y2="70.87" style="stroke-width: 0.5;stroke: rgb(128,128,128);stroke-opacity: 1.0;stroke-linecap: square;shape-rendering:crispEdges;" clip-path="url(#_1775125779213clip-0)"/><g style="fill: rgb(64,64,64); fill-opacity: 1.0; stroke: none" transform="matrix(0,-1,1,0,-181.5,220.5)" clip-path="url(#_1775125779213clip-1)"><path d="M -47.12 196 L -45.64 196 L -43.73 200.18 L -40.09 196 L -38.53 196 L -43.17 201.34 L -44.11 206.2 L -45.48 206.2 L -44.55 201.34 L -47.12 196 Z  M -32.71 201.68 Q -32.7 201.57 -32.68 201.46 Q -32.67 201.34 -32.67 201.23 Q -32.67 200.4 -33.17 199.92 Q -33.65 199.42 -34.5 199.42 Q -35.43 199.42 -36.15 200.01 Q -36.87 200.6 -37.23 201.7 L -32.71 201.68 Z  M -31.62 202.67 L -37.48 202.67 Q -37.51 202.93 -37.53 203.09 Q -37.54 203.23 -37.54 203.34 Q -37.54 204.29 -36.96 204.81 Q -36.37 205.32 -35.31 205.32 Q -34.48 205.32 -33.76 205.15 Q -33.03 204.96 -32.39 204.6 L -32.64 205.85 Q -33.31 206.12 -34.03 206.26 Q -34.75 206.4 -35.5 206.4 Q -37.09 206.4 -37.95 205.64 Q -38.81 204.87 -38.81 203.46 Q -38.81 202.28 -38.39 201.25 Q -37.95 200.21 -37.12 199.42 Q -36.59 198.9 -35.85 198.64 Q -35.12 198.35 -34.29 198.35 Q -33 198.35 -32.23 199.14 Q -31.46 199.92 -31.46 201.23 Q -31.46 201.54 -31.51 201.9 Q -31.54 202.26 -31.62 202.67 Z  M -24.91 198.54 L -25.1 199.53 L -27.62 199.53 L -28.43 203.68 Q -28.48 203.9 -28.49 204.07 Q -28.51 204.23 -28.51 204.31 Q -28.51 204.75 -28.26 204.95 Q -27.99 205.15 -27.4 205.15 L -26.13 205.15 L -26.35 206.2 L -27.55 206.2 Q -28.66 206.2 -29.23 205.76 Q -29.77 205.32 -29.77 204.43 Q -29.77 204.28 -29.76 204.09 Q -29.73 203.9 -29.68 203.68 L -28.87 199.53 L -29.94 199.53 L -29.74 198.54 L -28.69 198.54 L -28.27 196.37 L -27.01 196.37 L -27.43 198.54 L -24.91 198.54 Z  M -14.97 198.54 L -15.16 199.53 L -17.68 199.53 L -18.49 203.68 Q -18.54 203.9 -18.55 204.07 Q -18.57 204.23 -18.57 204.31 Q -18.57 204.75 -18.32 204.95 Q -18.05 205.15 -17.46 205.15 L -16.19 205.15 L -16.41 206.2 L -17.61 206.2 Q -18.72 206.2 -19.29 205.76 Q -19.83 205.32 -19.83 204.43 Q -19.83 204.28 -19.82 204.09 Q -19.79 203.9 -19.74 203.68 L -18.93 199.53 L -20 199.53 L -19.8 198.54 L -18.75 198.54 L -18.33 196.37 L -17.07 196.37 L -17.49 198.54 L -14.97 198.54 Z  M -11.84 206.4 Q -13.2 206.4 -13.98 205.57 Q -14.77 204.73 -14.77 203.29 Q -14.77 202.46 -14.5 201.6 Q -14.22 200.73 -13.8 200.15 Q -13.11 199.23 -12.28 198.79 Q -11.45 198.35 -10.39 198.35 Q -9.09 198.35 -8.3 199.17 Q -7.48 199.98 -7.48 201.29 Q -7.48 202.2 -7.75 203.1 Q -8.02 204.01 -8.45 204.6 Q -9.11 205.53 -9.95 205.96 Q -10.78 206.4 -11.84 206.4 Z  M -13.45 203.26 Q -13.45 204.29 -13.03 204.81 Q -12.59 205.32 -11.7 205.32 Q -10.44 205.32 -9.61 204.23 Q -8.78 203.12 -8.78 201.43 Q -8.78 200.43 -9.23 199.93 Q -9.67 199.42 -10.53 199.42 Q -11.25 199.42 -11.8 199.76 Q -12.34 200.09 -12.78 200.76 Q -13.11 201.28 -13.28 201.93 Q -13.45 202.57 -13.45 203.26 Z  M 5.11 198.84 L 4.86 200.07 Q 4.41 199.75 3.89 199.59 Q 3.39 199.42 2.84 199.42 Q 2.25 199.42 1.7 199.64 Q 1.16 199.85 0.78 200.23 Q 0.2 200.84 -0.12 201.64 Q -0.44 202.43 -0.44 203.29 Q -0.44 204.32 0.08 204.82 Q 0.59 205.32 1.64 205.32 Q 2.16 205.32 2.73 205.17 Q 3.33 205.01 3.97 204.7 L 3.73 205.95 Q 3.19 206.17 2.61 206.28 Q 2.03 206.4 1.42 206.4 Q -0.11 206.4 -0.94 205.64 Q -1.75 204.87 -1.75 203.46 Q -1.75 202.26 -1.33 201.26 Q -0.89 200.26 -0.05 199.46 Q 0.52 198.92 1.28 198.64 Q 2.06 198.35 2.98 198.35 Q 3.52 198.35 4.03 198.48 Q 4.56 198.59 5.11 198.84 Z  M 11.54 199.7 Q 11.35 199.6 11.1 199.56 Q 10.87 199.5 10.59 199.5 Q 9.57 199.5 8.82 200.26 Q 8.07 201.01 7.82 202.29 L 7.06 206.2 L 5.81 206.2 L 7.29 198.54 L 8.56 198.54 L 8.32 199.73 Q 8.81 199.07 9.49 198.71 Q 10.2 198.35 10.99 198.35 Q 11.2 198.35 11.38 198.39 Q 11.59 198.4 11.79 198.46 L 11.54 199.7 Z  M 17.8 201.68 Q 17.81 201.57 17.83 201.46 Q 17.84 201.34 17.84 201.23 Q 17.84 200.4 17.34 199.92 Q 16.86 199.42 16.02 199.42 Q 15.08 199.42 14.36 200.01 Q 13.64 200.6 13.28 201.7 L 17.8 201.68 Z  M 18.89 202.67 L 13.03 202.67 Q 13 202.93 12.98 203.09 Q 12.97 203.23 12.97 203.34 Q 12.97 204.29 13.55 204.81 Q 14.14 205.32 15.2 205.32 Q 16.03 205.32 16.75 205.15 Q 17.48 204.96 18.12 204.6 L 17.88 205.85 Q 17.2 206.12 16.48 206.26 Q 15.77 206.4 15.02 206.4 Q 13.42 206.4 12.56 205.64 Q 11.7 204.87 11.7 203.46 Q 11.7 202.28 12.12 201.25 Q 12.56 200.21 13.39 199.42 Q 13.92 198.9 14.66 198.64 Q 15.39 198.35 16.22 198.35 Q 17.52 198.35 18.28 199.14 Q 19.05 199.92 19.05 201.23 Q 19.05 201.54 19 201.9 Q 18.97 202.26 18.89 202.67 Z  M 27.19 201.82 L 26.35 206.2 L 25.08 206.2 L 25.32 205.04 Q 24.77 205.71 24.05 206.06 Q 23.35 206.4 22.47 206.4 Q 21.5 206.4 20.88 205.81 Q 20.25 205.2 20.25 204.26 Q 20.25 202.92 21.32 202.15 Q 22.39 201.37 24.27 201.37 L 26.02 201.37 L 26.08 201.03 Q 26.1 200.98 26.1 200.92 Q 26.11 200.84 26.11 200.71 Q 26.11 200.1 25.61 199.76 Q 25.13 199.42 24.22 199.42 Q 23.61 199.42 22.96 199.59 Q 22.32 199.75 21.64 200.06 L 21.86 198.89 Q 22.57 198.62 23.24 198.5 Q 23.93 198.35 24.57 198.35 Q 25.91 198.35 26.61 198.95 Q 27.33 199.53 27.33 200.65 Q 27.33 200.89 27.3 201.2 Q 27.27 201.5 27.19 201.82 Z  M 25.83 202.35 L 24.58 202.35 Q 23.04 202.35 22.29 202.78 Q 21.55 203.18 21.55 204.04 Q 21.55 204.65 21.93 205 Q 22.3 205.32 22.97 205.32 Q 24 205.32 24.77 204.59 Q 25.54 203.85 25.79 202.64 L 25.83 202.35 Z  M 34.18 198.54 L 33.99 199.53 L 31.47 199.53 L 30.66 203.68 Q 30.61 203.9 30.6 204.07 Q 30.58 204.23 30.58 204.31 Q 30.58 204.75 30.83 204.95 Q 31.1 205.15 31.69 205.15 L 32.96 205.15 L 32.74 206.2 L 31.54 206.2 Q 30.43 206.2 29.86 205.76 Q 29.32 205.32 29.32 204.43 Q 29.32 204.28 29.33 204.09 Q 29.36 203.9 29.41 203.68 L 30.22 199.53 L 29.15 199.53 L 29.35 198.54 L 30.4 198.54 L 30.82 196.37 L 32.08 196.37 L 31.66 198.54 L 34.18 198.54 Z  M 40.48 201.68 Q 40.49 201.57 40.51 201.46 Q 40.53 201.34 40.53 201.23 Q 40.53 200.4 40.03 199.92 Q 39.54 199.42 38.7 199.42 Q 37.76 199.42 37.04 200.01 Q 36.32 200.6 35.96 201.7 L 40.48 201.68 Z  M 41.57 202.67 L 35.71 202.67 Q 35.68 202.93 35.67 203.09 Q 35.65 203.23 35.65 203.34 Q 35.65 204.29 36.23 204.81 Q 36.82 205.32 37.88 205.32 Q 38.71 205.32 39.43 205.15 Q 40.17 204.96 40.81 204.6 L 40.56 205.85 Q 39.88 206.12 39.17 206.26 Q 38.45 206.4 37.7 206.4 Q 36.1 206.4 35.24 205.64 Q 34.38 204.87 34.38 203.46 Q 34.38 202.28 34.81 201.25 Q 35.24 200.21 36.07 199.42 Q 36.6 198.9 37.34 198.64 Q 38.07 198.35 38.9 198.35 Q 40.2 198.35 40.96 199.14 Q 41.73 199.92 41.73 201.23 Q 41.73 201.54 41.68 201.9 Q 41.65 202.26 41.57 202.67 Z  M 54.32 201.82 L 53.48 206.2 L 52.21 206.2 L 52.45 205.04 Q 51.9 205.71 51.18 206.06 Q 50.48 206.4 49.6 206.4 Q 48.64 206.4 48.01 205.81 Q 47.39 205.2 47.39 204.26 Q 47.39 202.92 48.45 202.15 Q 49.53 201.37 51.4 201.37 L 53.15 201.37 L 53.21 201.03 Q 53.23 200.98 53.23 200.92 Q 53.25 200.84 53.25 200.71 Q 53.25 200.1 52.75 199.76 Q 52.26 199.42 51.35 199.42 Q 50.75 199.42 50.09 199.59 Q 49.45 199.75 48.78 200.06 L 49 198.89 Q 49.7 198.62 50.37 198.5 Q 51.06 198.35 51.7 198.35 Q 53.04 198.35 53.75 198.95 Q 54.46 199.53 54.46 200.65 Q 54.46 200.89 54.43 201.2 Q 54.4 201.5 54.32 201.82 Z  M 52.96 202.35 L 51.71 202.35 Q 50.17 202.35 49.42 202.78 Q 48.68 203.18 48.68 204.04 Q 48.68 204.65 49.06 205 Q 49.43 205.32 50.1 205.32 Q 51.14 205.32 51.9 204.59 Q 52.67 203.85 52.92 202.64 L 52.96 202.35 Z  M 60.77 203.17 L 61.67 198.54 L 62.93 198.54 L 62.04 203.12 Q 61.98 203.45 61.95 203.7 Q 61.92 203.93 61.92 204.09 Q 61.92 204.67 62.26 205 Q 62.62 205.31 63.27 205.31 Q 64.27 205.31 65.01 204.62 Q 65.76 203.93 65.98 202.78 L 66.82 198.54 L 68.09 198.54 L 66.6 206.2 L 65.34 206.2 L 65.59 205 Q 65.06 205.67 64.32 206.04 Q 63.59 206.4 62.76 206.4 Q 61.76 206.4 61.2 205.85 Q 60.63 205.29 60.63 204.31 Q 60.63 204.1 60.67 203.81 Q 60.71 203.5 60.77 203.17 Z  M 76.51 201.57 L 75.62 206.2 L 74.35 206.2 L 75.24 201.62 Q 75.3 201.31 75.33 201.06 Q 75.38 200.81 75.38 200.67 Q 75.38 200.09 75.01 199.78 Q 74.65 199.45 74.01 199.45 Q 72.99 199.45 72.26 200.12 Q 71.52 200.79 71.3 201.95 L 70.46 206.2 L 69.21 206.2 L 70.68 198.54 L 71.94 198.54 L 71.69 199.75 Q 72.21 199.09 72.94 198.73 Q 73.69 198.35 74.51 198.35 Q 75.52 198.35 76.07 198.9 Q 76.63 199.45 76.63 200.45 Q 76.63 200.68 76.6 200.96 Q 76.57 201.25 76.51 201.57 Z  M 80.15 195.56 L 81.41 195.56 L 81.1 197.15 L 79.83 197.15 L 80.15 195.56 Z  M 79.57 198.54 L 80.83 198.54 L 79.33 206.2 L 78.08 206.2 L 79.57 198.54 Z  M 87.39 198.54 L 87.21 199.53 L 84.69 199.53 L 83.88 203.68 Q 83.83 203.9 83.82 204.07 Q 83.8 204.23 83.8 204.31 Q 83.8 204.75 84.05 204.95 Q 84.32 205.15 84.91 205.15 L 86.18 205.15 L 85.96 206.2 L 84.75 206.2 Q 83.64 206.2 83.08 205.76 Q 82.54 205.32 82.54 204.43 Q 82.54 204.28 82.55 204.09 Q 82.58 203.9 82.63 203.68 L 83.44 199.53 L 82.36 199.53 L 82.57 198.54 L 83.61 198.54 L 84.04 196.37 L 85.3 196.37 L 84.88 198.54 L 87.39 198.54 Z "/></g><line x1="134.68" y1="53" x2="134.68" y2="349" style="stroke-width: 0.5;stroke: rgb(128,128,128);stroke-opacity: 1.0;stroke-linejoin: bevel;stroke-dasharray: 2.0, 2.0;shape-rendering:crispEdges;" clip-path="url(#_1775125779213clip-2)"/><line x1="212.05" y1="53" x2="212.05" y2="349" style="stroke-width: 0.5;stroke: rgb(128,128,128);stroke-opacity: 1.0;stroke-linejoin: bevel;stroke-dasharray: 2.0, 2.0;shape-rendering:crispEdges;" clip-path="url(#_1775125779213clip-2)"/><line x1="289.44" y1="53" x2="289.44" y2="349" style="stroke-width: 0.5;stroke: rgb(128,128,128);stroke-opacity: 1.0;stroke-linejoin: bevel;stroke-dasharray: 2.0, 2.0;shape-rendering:crispEdges;" clip-path="url(#_1775125779213clip-2)"/><line x1="366.15" y1="53" x2="366.15" y2="349" style="stroke-width: 0.5;stroke: rgb(128,128,128);stroke-opacity: 1.0;stroke-linejoin: bevel;stroke-dasharray: 2.0, 2.0;shape-rendering:crispEdges;" clip-path="url(#_1775125779213clip-2)"/><line x1="443.51" y1="53" x2="443.51" y2="349" style="stroke-width: 0.5;stroke: rgb(128,128,128);stroke-opacity: 1.0;stroke-linejoin: bevel;stroke-dasharray: 2.0, 2.0;shape-rendering:crispEdges;" clip-path="url(#_1775125779213clip-2)"/><line x1="520.91" y1="53" x2="520.91" y2="349" style="stroke-width: 0.5;stroke: rgb(128,128,128);stroke-opacity: 1.0;stroke-linejoin: bevel;stroke-dasharray: 2.0, 2.0;shape-rendering:crispEdges;" clip-path="url(#_1775125779213clip-2)"/><line x1="77" y1="335.55" x2="588" y2="335.55" style="stroke-width: 0.5;stroke: rgb(128,128,128);stroke-opacity: 1.0;stroke-linejoin: bevel;stroke-dasharray: 2.0, 2.0;shape-rendering:crispEdges;" clip-path="url(#_1775125779213clip-2)"/><line x1="77" y1="306.14" x2="588" y2="306.14" style="stroke-width: 0.5;stroke: rgb(128,128,128);stroke-opacity: 1.0;stroke-linejoin: bevel;stroke-dasharray: 2.0, 2.0;shape-rendering:crispEdges;" clip-path="url(#_1775125779213clip-2)"/><line x1="77" y1="276.73" x2="588" y2="276.73" style="stroke-width: 0.5;stroke: rgb(128,128,128);stroke-opacity: 1.0;stroke-linejoin: bevel;stroke-dasharray: 2.0, 2.0;shape-rendering:crispEdges;" clip-path="url(#_1775125779213clip-2)"/><line x1="77" y1="247.32" x2="588" y2="247.32" style="stroke-width: 0.5;stroke: rgb(128,128,128);stroke-opacity: 1.0;stroke-linejoin: bevel;stroke-dasharray: 2.0, 2.0;shape-rendering:crispEdges;" clip-path="url(#_1775125779213clip-2)"/><line x1="77" y1="217.91" x2="588" y2="217.91" style="stroke-width: 0.5;stroke: rgb(128,128,128);stroke-opacity: 1.0;stroke-linejoin: bevel;stroke-dasharray: 2.0, 2.0;shape-rendering:crispEdges;" clip-path="url(#_1775125779213clip-2)"/><line x1="77" y1="188.5" x2="588" y2="188.5" style="stroke-width: 0.5;stroke: rgb(128,128,128);stroke-opacity: 1.0;stroke-linejoin: bevel;stroke-dasharray: 2.0, 2.0;shape-rendering:crispEdges;" clip-path="url(#_1775125779213clip-2)"/><line x1="77" y1="159.09" x2="588" y2="159.09" style="stroke-width: 0.5;stroke: rgb(128,128,128);stroke-opacity: 1.0;stroke-linejoin: bevel;stroke-dasharray: 2.0, 2.0;shape-rendering:crispEdges;" clip-path="url(#_1775125779213clip-2)"/><line x1="77" y1="129.68" x2="588" y2="129.68" style="stroke-width: 0.5;stroke: rgb(128,128,128);stroke-opacity: 1.0;stroke-linejoin: bevel;stroke-dasharray: 2.0, 2.0;shape-rendering:crispEdges;" clip-path="url(#_1775125779213clip-2)"/><line x1="77" y1="100.27" x2="588" y2="100.27" style="stroke-width: 0.5;stroke: rgb(128,128,128);stroke-opacity: 1.0;stroke-linejoin: bevel;stroke-dasharray: 2.0, 2.0;shape-rendering:crispEdges;" clip-path="url(#_1775125779213clip-2)"/><line x1="77" y1="70.87" x2="588" y2="70.87" style="stroke-width: 0.5;stroke: rgb(128,128,128);stroke-opacity: 1.0;stroke-linejoin: bevel;stroke-dasharray: 2.0, 2.0;shape-rendering:crispEdges;" clip-path="url(#_1775125779213clip-2)"/><g style="stroke-width: 3.0;stroke: rgb(24,123,58);stroke-opacity: 1.0;stroke-linecap: round;stroke-linejoin: bevel;shape-rendering:geometricPrecision;; fill: none" clip-path="url(#_1775125779213clip-2)"><path d="M 77 335.55 L 328.76 247.32 L 577.98 153.8"/></g><g style="stroke-width: 3.0;stroke: rgb(255,0,0);stroke-opacity: 1.0;stroke-linecap: round;stroke-linejoin: bevel;shape-rendering:geometricPrecision;; fill: none" clip-path="url(#_1775125779213clip-2)"><path d="M 77 329.66 L 309.1 66.45"/></g><rect x="77" y="53" width="511" height="296" style="stroke-width: 0.5;stroke: rgb(0,0,0);stroke-opacity: 1.0;stroke-linecap: round;stroke-linejoin: round;shape-rendering:crispEdges;; fill: none" clip-path="url(#_1775125779213clip-0)"/></svg>
