<!DOCTYPE svg PUBLIC "-//W3C//DTD SVG 1.1//EN" "http://www.w3.org/Graphics/SVG/1.1/DTD/svg11.dtd">
<svg xmlns="http://www.w3.org/2000/svg" xmlns:xlink="http://www.w3.org/1999/xlink" xmlns:jfreesvg="http://www.jfree.org/jfreesvg/svg" width="600" height="400" text-rendering="auto" shape-rendering="auto">
<defs><clipPath id="_823255936049clip-0"><path d="M 0 0 L 600 0 L 600 400 L 0 400 L 0 0 Z "/></clipPath>
<clipPath id="_823255936049clip-1"><path d="M 220.5 181.5 L 220.5 781.5 L -179.5 781.5 L -179.5 181.5 L 220.5 181.5 Z "/></clipPath>
<clipPath id="_823255936049clip-2"><path d="M 104 53 L 104 349 L 588 349 L 588 53 Z "/></clipPath>
</defs>
<rect x="0" y="0" width="600" height="400" style="fill: rgb(255,255,255); fill-opacity: 1.0" clip-path="url(#_823255936049clip-0)"/><g ><text x="236.5" y="17.71" style="fill: rgb(0,0,0); fill-opacity: 1.0; font-family: sans-serif; font-size: 18px; font-weight: bold;" clip-path="url(#_823255936049clip-0)">COVID cases</text></g><rect x="185" y="376" width="230" height="23" style="fill: rgb(255,255,255); fill-opacity: 1.0" clip-path="url(#_823255936049clip-0)"/><g style="stroke-width: 3.0;stroke: rgb(255,0,0);stroke-opacity: 1.0;stroke-linecap: round;stroke-linejoin: bevel;shape-rendering:geometricPrecision;; fill: none" clip-path="url(#_823255936049clip-0)"><path d="M 188 387.5 L 202 387.5"/></g><g ><text x="206" y="392" style="fill: rgb(64,64,64); fill-opacity: 1.0; font-family: sans-serif; font-size: 14px;" clip-path="url(#_823255936049clip-0)">Total cases</text></g><g style="stroke-width: 3.0;stroke: rgb(24,123,58);stroke-opacity: 1.0;stroke-linecap: round;stroke-linejoin: bevel;shape-rendering:geometricPrecision;; fill: none" clip-path="url(#_823255936049clip-0)"><path d="M 291 387.5 L 305 387.5"/></g><g ><text x="309" y="392" style="fill: rgb(64,64,64); fill-opacity: 1.0; font-family: sans-serif; font-size: 14px;" clip-path="url(#_823255936049clip-0)">Concern levels</text></g><g ><text x="232" y="39.85" style="fill: rgb(0,0,0); fill-opacity: 1.0; font-family: sans-serif; font-size: 16px;" clip-path="url(#_823255936049clip-0)">Source: NYTimes</text></g><rect x="104" y="53" width="484" height="296" style="fill: rgb(192,192,192); fill-opacity: 1.0" clip-path="url(#_823255936049clip-0)"/><line x1="104" y1="353" x2="588" y2="353" style="stroke-width: 0.5;stroke: rgb(128,128,128);stroke-opacity: 1.0;stroke-linecap: square;shape-rendering:crispEdges;" clip-path="url(#_823255936049clip-0)"/><g ><text x="139.26" y="369.17" style="fill: rgb(64,64,64); fill-opacity: 1.0; font-family: sans-serif; font-size: 12px;" clip-path="url(#_823255936049clip-0)">7-Mar</text></g><line x1="156.76" y1="355" x2="156.76" y2="353" style="stroke-width: 0.5;stroke: rgb(128,128,128);stroke-opacity: 1.0;stroke-linecap: square;shape-rendering:crispEdges;" clip-path="url(#_823255936049clip-0)"/><g ><text x="197.32" y="369.17" style="fill: rgb(64,64,64); fill-opacity: 1.0; font-family: sans-serif; font-size: 12px;" clip-path="url(#_823255936049clip-0)">14-Mar</text></g><line x1="218.32" y1="355" x2="218.32" y2="353" style="stroke-width: 0.5;stroke: rgb(128,128,128);stroke-opacity: 1.0;stroke-linecap: square;shape-rendering:crispEdges;" clip-path="url(#_823255936049clip-0)"/><g ><text x="258.88" y="369.17" style="fill: rgb(64,64,64); fill-opacity: 1.0; font-family: sans-serif; font-size: 12px;" clip-path="url(#_823255936049clip-0)">21-Mar</text></g><line x1="279.88" y1="355" x2="279.88" y2="353" style="stroke-width: 0.5;stroke: rgb(128,128,128);stroke-opacity: 1.0;stroke-linecap: square;shape-rendering:crispEdges;" clip-path="url(#_823255936049clip-0)"/><g ><text x="320.44" y="369.17" style="fill: rgb(64,64,64); fill-opacity: 1.0; font-family: sans-serif; font-size: 12px;" clip-path="url(#_823255936049clip-0)">28-Mar</text></g><line x1="341.44" y1="355" x2="341.44" y2="353" style="stroke-width: 0.5;stroke: rgb(128,128,128);stroke-opacity: 1.0;stroke-linecap: square;shape-rendering:crispEdges;" clip-path="url(#_823255936049clip-0)"/><g ><text x="386.13" y="369.17" style="fill: rgb(64,64,64); fill-opacity: 1.0; font-family: sans-serif; font-size: 12px;" clip-path="url(#_823255936049clip-0)">4-Apr</text></g><line x1="402.63" y1="355" x2="402.63" y2="353" style="stroke-width: 0.5;stroke: rgb(128,128,128);stroke-opacity: 1.0;stroke-linecap: square;shape-rendering:crispEdges;" clip-path="url(#_823255936049clip-0)"/><g ><text x="444.19" y="369.17" style="fill: rgb(64,64,64); fill-opacity: 1.0; font-family: sans-serif; font-size: 12px;" clip-path="url(#_823255936049clip-0)">11-Apr</text></g><line x1="464.19" y1="355" x2="464.19" y2="353" style="stroke-width: 0.5;stroke: rgb(128,128,128);stroke-opacity: 1.0;stroke-linecap: square;shape-rendering:crispEdges;" clip-path="url(#_823255936049clip-0)"/><g ><text x="505.75" y="369.17" style="fill: rgb(64,64,64); fill-opacity: 1.0; font-family: sans-serif; font-size: 12px;" clip-path="url(#_823255936049clip-0)">18-Apr</text></g><line x1="525.75" y1="355" x2="525.75" y2="353" style="stroke-width: 0.5;stroke: rgb(128,128,128);stroke-opacity: 1.0;stroke-linecap: square;shape-rendering:crispEdges;" clip-path="url(#_823255936049clip-0)"/><g ><text x="567.3" y="369.17" style="fill: rgb(64,64,64); fill-opacity: 1.0; font-family: sans-serif; font-size: 12px;" clip-path="url(#_823255936049clip-0)">25-Apr</text></g><line x1="587.3" y1="355" x2="587.3" y2="353" style="stroke-width: 0.5;stroke: rgb(128,128,128);stroke-opacity: 1.0;stroke-linecap: square;shape-rendering:crispEdges;" clip-path="url(#_823255936049clip-0)"/><line x1="100" y1="53" x2="100" y2="349" style="stroke-width: 0.5;stroke: rgb(128,128,128);stroke-opacity: 1.0;stroke-linecap: square;shape-rendering:crispEdges;" clip-path="url(#_823255936049clip-0)"/><g ><text x="44" y="348.77" style="fill: rgb(64,64,64); fill-opacity: 1.0; font-family: sans-serif; font-size: 12px;" clip-path="url(#_823255936049clip-0)">400,000</text></g><line x1="98" y1="344.1" x2="100" y2="344.1" style="stroke-width: 0.5;stroke: rgb(128,128,128);stroke-opacity: 1.0;stroke-linecap: square;shape-rendering:crispEdges;" clip-path="url(#_823255936049clip-0)"/><g ><text x="44" y="323.38" style="fill: rgb(64,64,64); fill-opacity: 1.0; font-family: sans-serif; font-size: 12px;" clip-path="url(#_823255936049clip-0)">600,000</text></g><line x1="98" y1="318.71" x2="100" y2="318.71" style="stroke-width: 0.5;stroke: rgb(128,128,128);stroke-opacity: 1.0;stroke-linecap: square;shape-rendering:crispEdges;" clip-path="url(#_823255936049clip-0)"/><g ><text x="44" y="298" style="fill: rgb(64,64,64); fill-opacity: 1.0; font-family: sans-serif; font-size: 12px;" clip-path="url(#_823255936049clip-0)">800,000</text></g><line x1="98" y1="293.33" x2="100" y2="293.33" style="stroke-width: 0.5;stroke: rgb(128,128,128);stroke-opacity: 1.0;stroke-linecap: square;shape-rendering:crispEdges;" clip-path="url(#_823255936049clip-0)"/><g ><text x="33" y="272.61" style="fill: rgb(64,64,64); fill-opacity: 1.0; font-family: sans-serif; font-size: 12px;" clip-path="url(#_823255936049clip-0)">1,000,000</text></g><line x1="98" y1="267.94" x2="100" y2="267.94" style="stroke-width: 0.5;stroke: rgb(128,128,128);stroke-opacity: 1.0;stroke-linecap: square;shape-rendering:crispEdges;" clip-path="url(#_823255936049clip-0)"/><g ><text x="33" y="247.22" style="fill: rgb(64,64,64); fill-opacity: 1.0; font-family: sans-serif; font-size: 12px;" clip-path="url(#_823255936049clip-0)">1,200,000</text></g><line x1="98" y1="242.55" x2="100" y2="242.55" style="stroke-width: 0.5;stroke: rgb(128,128,128);stroke-opacity: 1.0;stroke-linecap: square;shape-rendering:crispEdges;" clip-path="url(#_823255936049clip-0)"/><g ><text x="33" y="221.84" style="fill: rgb(64,64,64); fill-opacity: 1.0; font-family: sans-serif; font-size: 12px;" clip-path="url(#_823255936049clip-0)">1,400,000</text></g><line x1="98" y1="217.17" x2="100" y2="217.17" style="stroke-width: 0.5;stroke: rgb(128,128,128);stroke-opacity: 1.0;stroke-linecap: square;shape-rendering:crispEdges;" clip-path="url(#_823255936049clip-0)"/><g ><text x="33" y="196.45" style="fill: rgb(64,64,64); fill-opacity: 1.0; font-family: sans-serif; font-size: 12px;" clip-path="url(#_823255936049clip-0)">1,600,000</text></g><line x1="98" y1="191.78" x2="100" y2="191.78" style="stroke-width: 0.5;stroke: rgb(128,128,128);stroke-opacity: 1.0;stroke-linecap: square;shape-rendering:crispEdges;" clip-path="url(#_823255936049clip-0)"/><g ><text x="33" y="171.07" style="fill: rgb(64,64,64); fill-opacity: 1.0; font-family: sans-serif; font-size: 12px;" clip-path="url(#_823255936049clip-0)">1,800,000</text></g><line x1="98" y1="166.4" x2="100" y2="166.4" style="stroke-width: 0.5;stroke: rgb(128,128,128);stroke-opacity: 1.0;stroke-linecap: square;shape-rendering:crispEdges;" clip-path="url(#_823255936049clip-0)"/><g ><text x="33" y="145.68" style="fill: rgb(64,64,64); fill-opacity: 1.0; font-family: sans-serif; font-size: 12px;" clip-path="url(#_823255936049clip-0)">2,000,000</text></g><line x1="98" y1="141.01" x2="100" y2="141.01" style="stroke-width: 0.5;stroke: rgb(128,128,128);stroke-opacity: 1.0;stroke-linecap: square;shape-rendering:crispEdges;" clip-path="url(#_823255936049clip-0)"/><g ><text x="33" y="120.29" style="fill: rgb(64,64,64); fill-opacity: 1.0; font-family: sans-serif; font-size: 12px;" clip-path="url(#_823255936049clip-0)">2,200,000</text></g><line x1="98" y1="115.62" x2="100" y2="115.62" style="stroke-width: 0.5;stroke: rgb(128,128,128);stroke-opacity: 1.0;stroke-linecap: square;shape-rendering:crispEdges;" clip-path="url(#_823255936049clip-0)"/><g ><text x="33" y="94.91" style="fill: rgb(64,64,64); fill-opacity: 1.0; font-family: sans-serif; font-size: 12px;" clip-path="url(#_823255936049clip-0)">2,400,000</text></g><line x1="98" y1="90.24" x2="100" y2="90.24" style="stroke-width: 0.5;stroke: rgb(128,128,128);stroke-opacity: 1.0;stroke-linecap: square;shape-rendering:crispEdges;" clip-path="url(#_823255936049clip-0)"/><g ><text x="33" y="69.52" style="fill: rgb(64,64,64); fill-opacity: 1.0; font-family: sans-serif; font-size: 12px;" clip-path="url(#_823255936049clip-0)">2,600,000</text></g><line x1="98" y1="64.85" x2="100" y2="64.85" style="stroke-width: 0.5;stroke: rgb(128,128,128);stroke-opacity: 1.0;stroke-linecap: square;shape-rendering:crispEdges;" clip-path="url(#_823255936049clip-0)"/><g style="fill: rgb(64,64,64); fill-opacity: 1.0; stroke: none" transform="matrix(0,-1,1,0,-181.5,220.5)" clip-path="url(#_823255936049clip-1)"><path d="M 8.23 196.78 L 7.95 198.23 Q 7.3 197.57 6.56 197.26 Q 5.83 196.93 4.97 196.93 Q 3.8 196.93 2.91 197.5 Q 2.03 198.04 1.39 199.2 Q 0.97 199.93 0.75 200.76 Q 0.55 201.59 0.55 202.42 Q 0.55 203.81 1.27 204.54 Q 1.98 205.28 3.36 205.28 Q 4.31 205.28 5.19 204.98 Q 6.06 204.67 6.89 204.06 L 6.56 205.7 Q 5.75 206.04 4.92 206.21 Q 4.09 206.4 3.27 206.4 Q 1.3 206.4 0.19 205.34 Q -0.91 204.26 -0.91 202.37 Q -0.91 201.15 -0.5 199.98 Q -0.08 198.79 0.72 197.82 Q 1.55 196.79 2.61 196.31 Q 3.69 195.81 5.11 195.81 Q 5.98 195.81 6.77 196.06 Q 7.55 196.29 8.23 196.78 Z  M 15.79 201.82 L 14.95 206.2 L 13.68 206.2 L 13.92 205.04 Q 13.37 205.71 12.65 206.06 Q 11.95 206.4 11.07 206.4 Q 10.1 206.4 9.48 205.81 Q 8.85 205.2 8.85 204.26 Q 8.85 202.92 9.92 202.15 Q 10.99 201.37 12.87 201.37 L 14.62 201.37 L 14.68 201.03 Q 14.7 200.98 14.7 200.92 Q 14.71 200.84 14.71 200.71 Q 14.71 200.1 14.21 199.76 Q 13.73 199.42 12.82 199.42 Q 12.21 199.42 11.56 199.59 Q 10.92 199.75 10.24 200.06 L 10.46 198.89 Q 11.17 198.62 11.84 198.5 Q 12.53 198.35 13.17 198.35 Q 14.51 198.35 15.21 198.95 Q 15.93 199.53 15.93 200.65 Q 15.93 200.89 15.9 201.2 Q 15.87 201.5 15.79 201.82 Z  M 14.43 202.35 L 13.18 202.35 Q 11.63 202.35 10.88 202.78 Q 10.15 203.18 10.15 204.04 Q 10.15 204.65 10.53 205 Q 10.9 205.32 11.57 205.32 Q 12.6 205.32 13.37 204.59 Q 14.13 203.85 14.38 202.64 L 14.43 202.35 Z  M 23.85 198.76 L 23.62 199.96 Q 23.12 199.68 22.56 199.56 Q 22.01 199.42 21.42 199.42 Q 20.43 199.42 19.85 199.76 Q 19.29 200.09 19.29 200.67 Q 19.29 201.34 20.62 201.71 Q 20.71 201.73 20.76 201.75 L 21.17 201.87 Q 22.43 202.21 22.84 202.6 Q 23.26 202.98 23.26 203.65 Q 23.26 204.87 22.29 205.64 Q 21.34 206.4 19.76 206.4 Q 19.15 206.4 18.48 206.28 Q 17.82 206.17 17.01 205.92 L 17.26 204.62 Q 17.95 204.98 18.62 205.17 Q 19.29 205.34 19.9 205.34 Q 20.82 205.34 21.4 204.95 Q 21.98 204.56 21.98 203.95 Q 21.98 203.29 20.46 202.89 L 20.34 202.85 L 19.9 202.75 Q 18.95 202.48 18.5 202.07 Q 18.06 201.65 18.06 201.01 Q 18.06 199.79 18.98 199.07 Q 19.9 198.35 21.48 198.35 Q 22.1 198.35 22.68 198.46 Q 23.28 198.56 23.85 198.76 Z  M 30.88 201.68 Q 30.9 201.57 30.91 201.46 Q 30.93 201.34 30.93 201.23 Q 30.93 200.4 30.43 199.92 Q 29.95 199.42 29.1 199.42 Q 28.16 199.42 27.45 200.01 Q 26.73 200.6 26.37 201.7 L 30.88 201.68 Z  M 31.98 202.67 L 26.12 202.67 Q 26.09 202.93 26.07 203.09 Q 26.05 203.23 26.05 203.34 Q 26.05 204.29 26.63 204.81 Q 27.23 205.32 28.29 205.32 Q 29.12 205.32 29.84 205.15 Q 30.57 204.96 31.21 204.6 L 30.96 205.85 Q 30.29 206.12 29.57 206.26 Q 28.85 206.4 28.1 206.4 Q 26.51 206.4 25.65 205.64 Q 24.79 204.87 24.79 203.46 Q 24.79 202.28 25.21 201.25 Q 25.65 200.21 26.48 199.42 Q 27.01 198.9 27.74 198.64 Q 28.48 198.35 29.3 198.35 Q 30.6 198.35 31.37 199.14 Q 32.13 199.92 32.13 201.23 Q 32.13 201.54 32.09 201.9 Q 32.05 202.26 31.98 202.67 Z  M 39.76 198.76 L 39.53 199.96 Q 39.03 199.68 38.46 199.56 Q 37.92 199.42 37.32 199.42 Q 36.34 199.42 35.76 199.76 Q 35.2 200.09 35.2 200.67 Q 35.2 201.34 36.53 201.71 Q 36.62 201.73 36.67 201.75 L 37.07 201.87 Q 38.34 202.21 38.75 202.6 Q 39.17 202.98 39.17 203.65 Q 39.17 204.87 38.2 205.64 Q 37.25 206.4 35.67 206.4 Q 35.06 206.4 34.39 206.28 Q 33.73 206.17 32.92 205.92 L 33.17 204.62 Q 33.86 204.98 34.53 205.17 Q 35.2 205.34 35.81 205.34 Q 36.73 205.34 37.31 204.95 Q 37.89 204.56 37.89 203.95 Q 37.89 203.29 36.37 202.89 L 36.25 202.85 L 35.81 202.75 Q 34.86 202.48 34.4 202.07 Q 33.96 201.65 33.96 201.01 Q 33.96 199.79 34.89 199.07 Q 35.81 198.35 37.39 198.35 Q 38.01 198.35 38.59 198.46 Q 39.18 198.56 39.76 198.76 Z "/></g><line x1="156.76" y1="53" x2="156.76" y2="349" style="stroke-width: 0.5;stroke: rgb(128,128,128);stroke-opacity: 1.0;stroke-linejoin: bevel;stroke-dasharray: 2.0, 2.0;shape-rendering:crispEdges;" clip-path="url(#_823255936049clip-2)"/><line x1="218.32" y1="53" x2="218.32" y2="349" style="stroke-width: 0.5;stroke: rgb(128,128,128);stroke-opacity: 1.0;stroke-linejoin: bevel;stroke-dasharray: 2.0, 2.0;shape-rendering:crispEdges;" clip-path="url(#_823255936049clip-2)"/><line x1="279.88" y1="53" x2="279.88" y2="349" style="stroke-width: 0.5;stroke: rgb(128,128,128);stroke-opacity: 1.0;stroke-linejoin: bevel;stroke-dasharray: 2.0, 2.0;shape-rendering:crispEdges;" clip-path="url(#_823255936049clip-2)"/><line x1="341.44" y1="53" x2="341.44" y2="349" style="stroke-width: 0.5;stroke: rgb(128,128,128);stroke-opacity: 1.0;stroke-linejoin: bevel;stroke-dasharray: 2.0, 2.0;shape-rendering:crispEdges;" clip-path="url(#_823255936049clip-2)"/><line x1="402.63" y1="53" x2="402.63" y2="349" style="stroke-width: 0.5;stroke: rgb(128,128,128);stroke-opacity: 1.0;stroke-linejoin: bevel;stroke-dasharray: 2.0, 2.0;shape-rendering:crispEdges;" clip-path="url(#_823255936049clip-2)"/><line x1="464.19" y1="53" x2="464.19" y2="349" style="stroke-width: 0.5;stroke: rgb(128,128,128);stroke-opacity: 1.0;stroke-linejoin: bevel;stroke-dasharray: 2.0, 2.0;shape-rendering:crispEdges;" clip-path="url(#_823255936049clip-2)"/><line x1="525.75" y1="53" x2="525.75" y2="349" style="stroke-width: 0.5;stroke: rgb(128,128,128);stroke-opacity: 1.0;stroke-linejoin: bevel;stroke-dasharray: 2.0, 2.0;shape-rendering:crispEdges;" clip-path="url(#_823255936049clip-2)"/><line x1="587.3" y1="53" x2="587.3" y2="349" style="stroke-width: 0.5;stroke: rgb(128,128,128);stroke-opacity: 1.0;stroke-linejoin: bevel;stroke-dasharray: 2.0, 2.0;shape-rendering:crispEdges;" clip-path="url(#_823255936049clip-2)"/><line x1="104" y1="344.1" x2="588" y2="344.1" style="stroke-width: 0.5;stroke: rgb(128,128,128);stroke-opacity: 1.0;stroke-linejoin: bevel;stroke-dasharray: 2.0, 2.0;shape-rendering:crispEdges;" clip-path="url(#_823255936049clip-2)"/><line x1="104" y1="318.71" x2="588" y2="318.71" style="stroke-width: 0.5;stroke: rgb(128,128,128);stroke-opacity: 1.0;stroke-linejoin: bevel;stroke-dasharray: 2.0, 2.0;shape-rendering:crispEdges;" clip-path="url(#_823255936049clip-2)"/><line x1="104" y1="293.33" x2="588" y2="293.33" style="stroke-width: 0.5;stroke: rgb(128,128,128);stroke-opacity: 1.0;stroke-linejoin: bevel;stroke-dasharray: 2.0, 2.0;shape-rendering:crispEdges;" clip-path="url(#_823255936049clip-2)"/><line x1="104" y1="267.94" x2="588" y2="267.94" style="stroke-width: 0.5;stroke: rgb(128,128,128);stroke-opacity: 1.0;stroke-linejoin: bevel;stroke-dasharray: 2.0, 2.0;shape-rendering:crispEdges;" clip-path="url(#_823255936049clip-2)"/><line x1="104" y1="242.55" x2="588" y2="242.55" style="stroke-width: 0.5;stroke: rgb(128,128,128);stroke-opacity: 1.0;stroke-linejoin: bevel;stroke-dasharray: 2.0, 2.0;shape-rendering:crispEdges;" clip-path="url(#_823255936049clip-2)"/><line x1="104" y1="217.17" x2="588" y2="217.17" style="stroke-width: 0.5;stroke: rgb(128,128,128);stroke-opacity: 1.0;stroke-linejoin: bevel;stroke-dasharray: 2.0, 2.0;shape-rendering:crispEdges;" clip-path="url(#_823255936049clip-2)"/><line x1="104" y1="191.78" x2="588" y2="191.78" style="stroke-width: 0.5;stroke: rgb(128,128,128);stroke-opacity: 1.0;stroke-linejoin: bevel;stroke-dasharray: 2.0, 2.0;shape-rendering:crispEdges;" clip-path="url(#_823255936049clip-2)"/><line x1="104" y1="166.4" x2="588" y2="166.4" style="stroke-width: 0.5;stroke: rgb(128,128,128);stroke-opacity: 1.0;stroke-linejoin: bevel;stroke-dasharray: 2.0, 2.0;shape-rendering:crispEdges;" clip-path="url(#_823255936049clip-2)"/><line x1="104" y1="141.01" x2="588" y2="141.01" style="stroke-width: 0.5;stroke: rgb(128,128,128);stroke-opacity: 1.0;stroke-linejoin: bevel;stroke-dasharray: 2.0, 2.0;shape-rendering:crispEdges;" clip-path="url(#_823255936049clip-2)"/><line x1="104" y1="115.62" x2="588" y2="115.62" style="stroke-width: 0.5;stroke: rgb(128,128,128);stroke-opacity: 1.0;stroke-linejoin: bevel;stroke-dasharray: 2.0, 2.0;shape-rendering:crispEdges;" clip-path="url(#_823255936049clip-2)"/><line x1="104" y1="90.24" x2="588" y2="90.24" style="stroke-width: 0.5;stroke: rgb(128,128,128);stroke-opacity: 1.0;stroke-linejoin: bevel;stroke-dasharray: 2.0, 2.0;shape-rendering:crispEdges;" clip-path="url(#_823255936049clip-2)"/><line x1="104" y1="64.85" x2="588" y2="64.85" style="stroke-width: 0.5;stroke: rgb(128,128,128);stroke-opacity: 1.0;stroke-linejoin: bevel;stroke-dasharray: 2.0, 2.0;shape-rendering:crispEdges;" clip-path="url(#_823255936049clip-2)"/><g style="stroke-width: 3.0;stroke: rgb(255,0,0);stroke-opacity: 1.0;stroke-linecap: round;stroke-linejoin: bevel;shape-rendering:geometricPrecision;; fill: none" clip-path="url(#_823255936049clip-2)"><path d="M 104 296.32 L 332.64 335.55 L 341.44 327.96 L 350.23 319.84 L 358.66 311.58 L 367.45 304.15 L 385.04 286.87 L 393.84 277.11 L 402.63 267.26 L 411.42 256.88 L 420.22 245.92 L 429.01 236.86 L 437.81 227.79 L 446.6 218.29 L 455.39 207.51 L 464.19 196.46 L 472.98 185.12 L 481.78 174.75 L 490.57 165.56 L 499.36 157.14 L 508.16 147.59 L 516.95 137.31 L 525.75 126.6 L 534.54 116.03 L 543.33 105.35 L 552.13 95.94 L 560.92 86.13 L 569.72 75.04 L 578.51 66.45"/></g><rect x="104" y="53" width="484" height="296" style="stroke-width: 0.5;stroke: rgb(0,0,0);stroke-opacity: 1.0;stroke-linecap: round;stroke-linejoin: round;shape-rendering:crispEdges;; fill: none" clip-path="url(#_823255936049clip-0)"/></svg>
